HIERARCHY
ROOT Hips
{
	OFFSET 0.000000 0.000000 0.000000
	CHANNELS 6 Xposition Yposition Zposition Zrotation Yrotation Xrotation 
	JOINT LowerBack
	{
		OFFSET 0.000000 0.000000 0.000000
		CHANNELS 3 Zrotation Yrotation Xrotation
		JOINT Spine
		{
			OFFSET 0.028270 2.035590 -0.193380
			CHANNELS 3 Zrotation Yrotation Xrotation
			JOINT Spine1
			{
				OFFSET 0.056720 2.048850 -0.042750
				CHANNELS 3 Zrotation Yrotation Xrotation
				JOINT Neck
				{
					OFFSET 0.000000 0.000000 0.000000
					CHANNELS 3 Zrotation Yrotation Xrotation
					JOINT Neck1
					{
						OFFSET -0.054170 1.746240 0.172020
						CHANNELS 3 Zrotation Yrotation Xrotation
						JOINT Head
						{
							OFFSET 0.104070 1.761360 -0.123970
							CHANNELS 3 Zrotation Yrotation Xrotation
							End Site
							{
								OFFSET 0.000000 0.000000 0.000000
							}
						}
					}
				}
				JOINT LeftShoulder
				{
					OFFSET 0.000000 0.000000 0.000000
					CHANNELS 3 Zrotation Yrotation Xrotation
					JOINT LeftArm
					{
						OFFSET 3.362410 1.200890 -0.311210
						CHANNELS 3 Zrotation Yrotation Xrotation
						JOINT LeftForeArm
						{
							OFFSET 4.983000 -0.000000 -0.000000
							CHANNELS 3 Zrotation Yrotation Xrotation
							JOINT LeftHand
							{
								OFFSET 3.483560 -0.000000 -0.000000
								CHANNELS 3 Zrotation Yrotation Xrotation
								JOINT LeftFingerBase
								{
									OFFSET 0.000000 0.000000 0.000000
									CHANNELS 3 Zrotation Yrotation Xrotation
									JOINT LeftHandIndex1
									{
										OFFSET 0.715260 -0.000000 -0.000000
										CHANNELS 3 Zrotation Yrotation Xrotation
										End Site
										{
											OFFSET 0.000000 0.000000 0.000000
										}
									}
								}
								JOINT LThumb
								{
									OFFSET 0.000000 0.000000 0.000000
									CHANNELS 3 Zrotation Yrotation Xrotation
									End Site
									{
										OFFSET 0.000000 0.000000 0.000000
									}
								}
							}
						}
					}
				}
				JOINT RightShoulder
				{
					OFFSET 0.000000 0.000000 0.000000
					CHANNELS 3 Zrotation Yrotation Xrotation
					JOINT RightArm
					{
						OFFSET -3.136600 1.374050 -0.404650
						CHANNELS 3 Zrotation Yrotation Xrotation
						JOINT RightForeArm
						{
							OFFSET -5.241900 -0.000000 -0.000000
							CHANNELS 3 Zrotation Yrotation Xrotation
							JOINT RightHand
							{
								OFFSET -3.444170 -0.000000 -0.000000
								CHANNELS 3 Zrotation Yrotation Xrotation
								JOINT RightFingerBase
								{
									OFFSET 0.000000 0.000000 0.000000
									CHANNELS 3 Zrotation Yrotation Xrotation
									JOINT RightHandIndex1
									{
										OFFSET -0.622530 -0.000000 -0.000000
										CHANNELS 3 Zrotation Yrotation Xrotation
										End Site
										{
											OFFSET 0.000000 0.000000 0.000000
										}
									}
								}
								JOINT RThumb
								{
									OFFSET 0.000000 0.000000 0.000000
									CHANNELS 3 Zrotation Yrotation Xrotation
									End Site
									{
										OFFSET 0.000000 0.000000 0.000000
									}
								}
							}
						}
					}
				}
			}
		}
	}
}
}
MOTION
Frames: 17
Frame Time: 0.008333
8.522971 19.224672 1.623422 25.226303 -85.109712 -0.455107 0.079954 -0.889705 -0.631084 -0.223470 -0.877903 -3.195698 -3.769117 -0.817561 -1.869568 3.506671 -5.033392 4.707721 -2.712006 -0.343477 3.264416 0.000000 0.000000 0.000000 11.538698 -3.201764 -3.619706 -76.443716 -32.786634 13.120079 179.986033 -76.844265 179.899426 7.972607 -4.511893 -0.373404 -0.090824 0.809523 -0.000000 0.000000 0.000000 0.000000 0.000000 0.000000 0.000000 0.347636 -3.945414 -1.909914 62.413218 40.269882 8.750683 0.134359 88.063945 -0.129805 -13.018887 14.464804 -1.757861 0.102512 -0.721281 -0.000000 0.000000 0.000000 0.000000 0.000000 0.000000 0.000000 
8.327783 19.397933 1.613555 24.961388 -85.388157 -0.055051 0.121699 -0.803982 -0.764898 -0.200336 -0.796175 -3.192039 -3.643415 -0.728374 -1.796214 3.254333 -5.094124 4.845796 -2.754685 -0.347994 3.299943 0.000000 0.000000 0.000000 12.179504 -2.476716 -3.813585 -76.332668 -32.431637 12.401640 179.978984 -72.478617 179.896489 7.827858 -4.891471 -0.395969 -0.090953 0.851585 -0.000000 0.000000 0.000000 0.000000 0.000000 0.000000 0.000000 -0.261221 -4.202758 -2.098164 61.614678 40.362628 7.909807 -179.797408 88.654478 179.858319 -13.713276 14.800282 -1.899297 0.115495 -0.756064 -0.000000 0.000000 0.000000 0.000000 0.000000 0.000000 0.000000 
8.137227 19.559816 1.603772 24.768204 -85.646260 0.281959 0.173568 -0.732277 -0.837613 -0.173251 -0.728716 -3.176494 -3.500911 -0.655024 -1.717789 2.969991 -5.128623 4.975255 -2.801473 -0.352605 3.331929 0.000000 0.000000 0.000000 12.868618 -1.754775 -3.994276 -76.196466 -32.062191 11.477457 179.947679 -68.162061 179.891557 7.819408 -5.357929 -0.431252 -0.094263 0.897612 -0.000000 0.000000 0.000000 0.000000 0.000000 0.000000 0.000000 -0.895793 -4.478037 -2.294094 60.836490 40.541576 7.023911 -179.710481 85.517115 179.844508 -14.577568 15.282810 -2.090135 0.132279 -0.793544 -0.000000 0.000000 0.000000 0.000000 0.000000 0.000000 0.000000 
7.950784 19.711140 1.594324 24.554999 -85.875587 0.639747 0.241343 -0.675993 -0.844622 -0.140680 -0.677389 -3.147925 -3.342068 -0.599868 -1.630559 2.655913 -5.144993 5.091622 -2.852936 -0.357238 3.359037 0.000000 0.000000 0.000000 13.587765 -1.030738 -4.155335 -76.040330 -31.672243 10.357455 179.886817 -63.926862 179.884474 7.951038 -5.910464 -0.481451 -0.101624 0.947430 -0.000000 0.000000 0.000000 0.000000 0.000000 0.000000 0.000000 -1.546009 -4.782616 -2.499006 60.079138 40.805188 6.111348 -179.605444 82.534141 179.828838 -15.609697 15.917599 -2.337075 0.153139 -0.833541 -0.000000 0.000000 0.000000 0.000000 0.000000 0.000000 0.000000 
7.768004 19.852786 1.585357 24.247765 -86.070749 1.087499 0.327095 -0.635603 -0.787725 -0.102029 -0.642898 -3.106236 -3.169024 -0.564029 -1.530623 2.318093 -5.150388 5.187784 -2.908945 -0.361754 3.379309 0.000000 0.000000 0.000000 14.317141 -0.297336 -4.288537 -75.866470 -31.262655 9.059361 179.793437 -59.812369 179.875058 8.231439 -6.551958 -0.550158 -0.114272 1.000892 -0.000000 0.000000 0.000000 0.000000 0.000000 0.000000 0.000000 -2.198439 -5.123495 -2.713905 59.340665 41.148138 5.186428 -179.484027 79.711756 179.811538 -16.799531 16.698538 -2.645525 0.178135 -0.875720 -0.000000 0.000000 0.000000 0.000000 0.000000 0.000000 0.000000 
7.588070 19.984835 1.576893 23.789314 -86.227829 1.687339 0.430294 -0.610855 -0.674841 -0.057479 -0.625021 -3.052250 -2.985776 -0.547535 -1.413733 1.966377 -5.151219 5.254744 -2.968488 -0.365938 3.390328 0.000000 0.000000 0.000000 15.034123 0.452730 -4.384719 -75.673739 -30.840047 7.607257 179.668055 -55.865490 179.863132 8.675445 -7.287613 -0.642461 -0.133882 1.057862 -0.000000 0.000000 0.000000 0.000000 0.000000 0.000000 0.000000 -2.836648 -5.503807 -2.939004 58.618083 41.560362 4.261060 -179.349133 77.053479 179.793011 -18.129290 17.608357 -3.018683 0.207117 -0.919529 -0.000000 0.000000 0.000000 0.000000 0.000000 0.000000 0.000000 
7.410425 20.107890 1.568800 23.168944 -86.344946 2.452515 0.546002 -0.600875 -0.517125 -0.008327 -0.622515 -2.987582 -2.797830 -0.549126 -1.277768 1.613588 -5.152142 5.284709 -3.029401 -0.369540 3.390097 0.000000 0.000000 0.000000 15.716685 1.222704 -4.436564 -75.458831 -30.414364 6.027747 179.513391 -52.135271 179.848490 9.304573 -8.124800 -0.765646 -0.162417 1.118278 -0.000000 0.000000 0.000000 0.000000 0.000000 0.000000 0.000000 -3.445115 -5.921740 -3.174140 57.909933 42.026172 3.342570 -179.204076 74.558420 179.773771 -19.574916 18.620225 -3.456454 0.239671 -0.964282 -0.000000 0.000000 0.000000 0.000000 0.000000 0.000000 0.000000 
7.234353 20.221995 1.560931 22.418438 -86.421168 3.358087 0.667476 -0.603994 -0.328889 0.043436 -0.633165 -2.914607 -2.611992 -0.566269 -1.122512 1.274725 -5.156311 5.272583 -3.088595 -0.372304 3.377413 0.000000 0.000000 0.000000 16.342258 2.010626 -4.440262 -75.216353 -29.999693 4.350501 179.334409 -48.673151 179.830971 10.144035 -9.070953 -0.929600 -0.201916 1.182085 -0.000000 0.000000 0.000000 0.000000 0.000000 0.000000 0.000000 -4.009140 -6.371334 -3.417720 57.216164 42.523864 2.435840 -179.052440 72.225416 179.754405 -21.108605 19.700454 -3.955235 0.275189 -1.009133 -0.000000 0.000000 0.000000 0.000000 0.000000 0.000000 0.000000 
7.059235 20.326722 1.553044 21.600812 -86.456835 4.346011 0.786658 -0.617820 -0.124744 0.095181 -0.653934 -2.836145 -2.435955 -0.595318 -0.950670 0.966024 -5.164914 5.218625 -3.142389 -0.374027 3.352582 0.000000 0.000000 0.000000 16.889320 2.808396 -4.397533 -74.941394 -29.613213 2.608610 179.137048 -45.529584 179.810493 11.220680 -10.131881 -1.146316 -0.254158 1.249161 -0.000000 0.000000 0.000000 0.000000 0.000000 0.000000 0.000000 -4.516650 -6.842828 -3.666759 56.539367 43.026700 1.543099 -178.897482 70.049675 179.735511 -22.698206 20.811549 -4.506930 0.312875 -1.053194 -0.000000 0.000000 0.000000 0.000000 0.000000 0.000000 0.000000 
6.884498 20.421981 1.544976 20.786433 -86.453110 5.349916 0.896397 -0.639340 0.080821 0.144154 -0.681272 -2.755517 -2.277425 -0.631934 -0.767873 0.702765 -5.177247 5.128860 -3.186969 -0.374592 3.317539 0.000000 0.000000 0.000000 17.338253 3.602435 -4.316306 -74.631699 -29.275238 0.840737 178.927828 -42.753379 179.787151 12.556172 -11.307163 -1.429788 -0.320098 1.319042 -0.000000 0.000000 0.000000 0.000000 0.000000 0.000000 0.000000 -4.958997 -7.323023 -3.916323 55.883447 43.505397 0.665248 -178.742046 68.027441 179.717636 -24.309348 21.915046 -5.099136 0.351807 -1.095557 -0.000000 0.000000 0.000000 0.000000 0.000000 0.000000 0.000000 
6.709891 20.507088 1.536603 20.032783 -86.412091 6.311435 0.991220 -0.664979 0.276046 0.187689 -0.711270 -2.676053 -2.143400 -0.671349 -0.582142 0.497921 -5.190666 5.015074 -3.219102 -0.374003 3.275815 0.000000 0.000000 0.000000 17.674334 4.376014 -4.210257 -74.288876 -29.008195 -0.908815 178.713355 -40.386029 179.761288 14.160183 -12.588715 -1.794020 -0.399312 1.390774 -0.000000 0.000000 0.000000 0.000000 0.000000 0.000000 0.000000 -5.330930 -7.796310 -4.159878 55.253466 43.930109 -0.197407 -178.588576 66.156247 179.701230 -25.905291 22.974813 -5.715153 0.390972 -1.135363 -0.000000 0.000000 0.000000 0.000000 0.000000 0.000000 0.000000 
6.534956 20.581823 1.527894 19.365156 -86.336194 7.206551 1.069028 -0.691166 0.451153 0.223755 -0.740358 -2.600860 -2.039656 -0.709199 -0.401538 0.361200 -5.202686 4.892581 -3.236856 -0.372384 3.231877 0.000000 0.000000 0.000000 17.886947 5.112239 -4.096481 -73.918963 -28.835681 -2.590802 178.501801 -38.461771 179.733609 16.021660 -13.952591 -2.249415 -0.489585 1.462456 -0.000000 0.000000 0.000000 0.000000 0.000000 0.000000 0.000000 -5.628701 -8.248212 -4.390086 54.654949 44.277880 -1.042514 -178.439492 64.432460 179.686641 -27.446803 23.957463 -6.334578 0.429371 -1.171863 -0.000000 0.000000 0.000000 0.000000 0.000000 0.000000 0.000000 
6.359702 20.645723 1.518874 18.788959 -86.228727 8.025558 1.129612 -0.714687 0.601048 0.251014 -0.765482 -2.532577 -1.969533 -0.741801 -0.235088 0.297020 -5.208788 4.778596 -3.239322 -0.369943 3.190686 0.000000 0.000000 0.000000 17.973697 5.793717 -3.992351 -73.532273 -28.775288 -4.158994 178.301427 -37.002589 179.705110 18.104913 -15.365177 -2.799581 -0.586774 1.531512 -0.000000 0.000000 0.000000 0.000000 0.000000 0.000000 0.000000 -5.853870 -8.662677 -4.599790 54.094091 44.530202 -1.868648 -178.296969 62.853265 179.674086 -28.891873 24.834878 -6.933710 0.465978 -1.204478 -0.000000 0.000000 0.000000 0.000000 0.000000 0.000000 0.000000 
6.184262 20.698685 1.509697 18.284514 -86.093616 8.782295 1.175764 -0.733178 0.724692 0.269139 -0.784661 -2.472823 -1.934255 -0.766741 -0.089720 0.304987 -5.205528 4.688736 -3.227326 -0.366959 3.156680 0.000000 0.000000 0.000000 17.937664 6.405501 -3.912317 -73.140050 -28.839409 -5.576106 178.122279 -36.015092 179.677102 20.343691 -16.774136 -3.435420 -0.685212 1.594488 -0.000000 0.000000 0.000000 0.000000 0.000000 0.000000 0.000000 -6.008934 -9.027091 -4.783100 53.576296 44.679961 -2.672086 -178.163514 61.416629 179.663678 -30.196617 25.583935 -7.486750 0.499831 -1.232793 -0.000000 0.000000 0.000000 0.000000 0.000000 0.000000 0.000000 
6.008666 20.740592 1.500439 17.818546 -85.934339 9.505847 1.212088 -0.745507 0.824807 0.278780 -0.797231 -2.422191 -1.932643 -0.783134 0.029860 0.380080 -5.190924 4.635481 -3.203259 -0.363745 3.133328 0.000000 0.000000 0.000000 17.788348 6.932438 -3.865398 -72.752544 -29.027700 -6.822155 177.974621 -35.490630 179.651017 22.645297 -18.111151 -4.130941 -0.778625 1.647412 -0.000000 0.000000 0.000000 0.000000 0.000000 0.000000 0.000000 -6.096675 -9.332733 -4.935901 53.105489 44.731836 -3.447827 -178.042183 60.122054 179.655451 -31.317324 26.186256 -7.967498 0.530065 -1.256535 -0.000000 0.000000 0.000000 0.000000 0.000000 0.000000 0.000000 
5.833192 20.771512 1.491267 17.360904 -85.754725 10.220844 1.243316 -0.751911 0.905305 0.281377 -0.803837 -2.380787 -1.960737 -0.791620 0.121057 0.512984 -5.165558 4.626548 -3.170970 -0.360629 3.122762 0.000000 0.000000 0.000000 17.543560 7.357286 -3.854134 -72.379823 -29.321195 -7.898201 177.865845 -35.401412 179.628195 24.896928 -19.294968 -4.840953 -0.861183 1.686314 -0.000000 0.000000 0.000000 0.000000 0.000000 0.000000 0.000000 -6.119659 -9.575759 -5.056252 52.683296 44.702372 -4.188751 -177.936434 58.973174 179.649367 -32.213452 26.628803 -8.351656 0.555895 -1.275552 -0.000000 0.000000 0.000000 0.000000 0.000000 0.000000 0.000000 
5.658349 20.791439 1.482241 16.896278 -85.559907 10.936761 1.276233 -0.752549 0.979221 0.278789 -0.805051 -2.346412 -2.015097 -0.792789 0.182602 0.690090 -5.124475 4.665940 -3.131564 -0.357732 3.125870 0.000000 0.000000 0.000000 17.212097 7.678711 -3.875214 -72.021037 -29.714800 -8.818657 177.804698 -35.717805 179.609589 26.979306 -20.271038 -5.513368 -0.928208 1.709240 -0.000000 0.000000 0.000000 0.000000 0.000000 0.000000 0.000000 -6.097627 -9.749089 -5.145649 52.325731 44.596703 -4.894462 -177.847673 57.961455 179.645322 -32.843461 26.905244 -8.617127 0.576488 -1.289976 -0.000000 0.000000 0.000000 0.000000 0.000000 0.000000 0.000000 
